<svg xmlns="http://www.w3.org/2000/svg" viewBox="0 0 574.89 102.72"><defs><style>.cls-1{fill:#0071bc;}.cls-2{fill:#f7f7f7;stroke:#727272;stroke-width:0.1px;}.cls-2,.cls-3{stroke-miterlimit:10;}.cls-3,.cls-4{fill:#333;}.cls-3{stroke:#fff;stroke-width:2px;}</style></defs><title>dnevnikRadaLogoSvg</title><g id="Layer_2" data-name="Layer 2"><g id="Layer_1-2" data-name="Layer 1"><rect class="cls-1" x="16" y="2.34" width="66" height="87" rx="8.38" ry="8.38" transform="translate(-4.43 5.25) rotate(-5.87)"/><path class="cls-2" d="M22.37,4.34H71.62A8.37,8.37,0,0,1,80,12.71V83a8.38,8.38,0,0,1-8.38,8.38H22.37A8.37,8.37,0,0,1,14,83V12.71A8.38,8.38,0,0,1,22.37,4.34Z" transform="translate(-4.65 5.06) rotate(-5.87)"/><path class="cls-2" d="M21.37,6.34H70.62A8.37,8.37,0,0,1,79,14.71V85a8.38,8.38,0,0,1-8.38,8.38H21.37A8.37,8.37,0,0,1,13,85V14.71a8.38,8.38,0,0,1,8.38-8.38Z" transform="translate(-4.86 4.97) rotate(-5.87)"/><path class="cls-2" d="M22.37,7.34H71.62A8.37,8.37,0,0,1,80,15.71V86a8.38,8.38,0,0,1-8.38,8.38H22.37A8.37,8.37,0,0,1,14,86V15.71a8.38,8.38,0,0,1,8.38-8.38Z" transform="matrix(0.99, 0.15, -0.15, 0.99, 8.27, -6.55)"/><path class="cls-2" d="M23.37,12.34H72.62A8.37,8.37,0,0,1,81,20.71V91a8.38,8.38,0,0,1-8.38,8.38H23.37A8.37,8.37,0,0,1,15,91V20.71a8.38,8.38,0,0,1,8.38-8.38Z" transform="translate(9.04 -6.65) rotate(8.74)"/><rect class="cls-1" x="9.5" y="6.84" width="66" height="87" rx="8.38" ry="8.38"/><rect class="cls-3" x="1" y="18.34" width="19" height="10" rx="5" ry="5"/><rect class="cls-3" x="1" y="45.34" width="19" height="10" rx="5" ry="5"/><rect class="cls-3" x="1" y="71.34" width="19" height="10" rx="5" ry="5"/><path class="cls-4" d="M107.07,20.77h15.31q10.14,0,16.77,4a24.34,24.34,0,0,1,9.65,10.29,30.47,30.47,0,0,1,3,13.39,25.73,25.73,0,0,1-3.67,13.8,24.86,24.86,0,0,1-9.8,9.18A28.39,28.39,0,0,1,125,74.64h-17.9Zm16.35,45.58A22.86,22.86,0,0,0,133.6,64.2a16,16,0,0,0,6.88-6.32,19.35,19.35,0,0,0,2.48-10,19.48,19.48,0,0,0-2.7-10.62A16.63,16.63,0,0,0,133.37,31a19.78,19.78,0,0,0-8.62-2h-9V66.35Z"/><path class="cls-4" d="M189.39,44.63a8.92,8.92,0,0,1,3,6.77V74.64H184.1V54.36a6.06,6.06,0,0,0-1.44-3.85A5.29,5.29,0,0,0,178.77,49a7.62,7.62,0,0,0-6.33,3.3,13.58,13.58,0,0,0-2.47,8.4V74.64h-8.29V43.34h7.47l.59,5.55a12.26,12.26,0,0,1,4.92-5.07A14.91,14.91,0,0,1,182.1,42,10.51,10.51,0,0,1,189.39,44.63Z"/><path class="cls-4" d="M225.91,65.91l3.77,6.14a25,25,0,0,1-5.4,2.48,18.31,18.31,0,0,1-5.55.92,19.37,19.37,0,0,1-9.36-2.14,15,15,0,0,1-6.07-5.92,17.55,17.55,0,0,1-2.11-8.66,15.8,15.8,0,0,1,2.37-8.44,17.17,17.17,0,0,1,6.44-6.1,17.94,17.94,0,0,1,8.88-2.26,15.38,15.38,0,0,1,10.58,3.74,18.56,18.56,0,0,1,5.62,10.54L211,64.35a8.35,8.35,0,0,0,3.33,3,10.12,10.12,0,0,0,4.59,1A12.44,12.44,0,0,0,225.91,65.91Zm-14.1-14.73a10.19,10.19,0,0,0-2.48,7.1,7.83,7.83,0,0,0,.08,1.26l16.42-5.84A9.44,9.44,0,0,0,223,49.92a7.48,7.48,0,0,0-4.81-1.48A8.26,8.26,0,0,0,211.81,51.18Z"/><path class="cls-4" d="M272.9,43.34,255.73,75.45h-.37l-18-32.11h9.84l8.58,17.9,7.85-17.9Z"/><path class="cls-4" d="M307.42,44.63a8.92,8.92,0,0,1,3,6.77V74.64h-8.29V54.36a6,6,0,0,0-1.45-3.85A5.25,5.25,0,0,0,296.8,49a7.59,7.59,0,0,0-6.33,3.3,13.58,13.58,0,0,0-2.48,8.4V74.64h-8.28V43.34h7.47l.59,5.55a12.26,12.26,0,0,1,4.92-5.07A14.91,14.91,0,0,1,300.13,42,10.51,10.51,0,0,1,307.42,44.63Z"/><path class="cls-4" d="M322.92,29a5,5,0,0,1,3.33-1.3,4.73,4.73,0,0,1,3.22,1.3,4.07,4.07,0,0,1,1.44,3.14,4,4,0,0,1-1.44,3.11,4.78,4.78,0,0,1-3.22,1.26,5,5,0,0,1-3.33-1.26,3.91,3.91,0,0,1-1.48-3.11A4,4,0,0,1,322.92,29Zm7.18,14.32v31.3h-8.29V43.34Z"/><path class="cls-4" d="M353.41,60.43l-3.63,2.81v11.4h-8.29V16.92h8.29V54.66L365.47,42.6l5,4.44-11.39,8.88,12.72,18.72h-9.62Z"/><path class="cls-1" d="M434.66,74.64,422.52,55.92h-8.66V74.64h-8.65V20.77h15.17q9,0,14.46,4.58t5.44,12.73a20.43,20.43,0,0,1-2.11,9.22,14.37,14.37,0,0,1-6.62,6.54l13.1,20.8Zm-20.8-27h7.7c3.45,0,6-1,7.51-2.85a9.86,9.86,0,0,0,2.33-6.4,10.55,10.55,0,0,0-.89-4.18,8.43,8.43,0,0,0-3-3.63,9.55,9.55,0,0,0-5.62-1.52h-8Z"/><path class="cls-1" d="M485.87,43.34v31.3h-8.29V70.12A17.33,17.33,0,0,1,473,73.79a13.22,13.22,0,0,1-6.73,1.66,17,17,0,0,1-8.07-1.88A13.75,13.75,0,0,1,452.57,68a18,18,0,0,1-2.08-9,18.31,18.31,0,0,1,2.15-9,15.45,15.45,0,0,1,5.73-6,15.26,15.26,0,0,1,7.89-2.11q7.62,0,11.39,5.62l.59-4.21ZM474.29,66.91A9.27,9.27,0,0,0,477.58,62v-6.8a8.66,8.66,0,0,0-3.44-4.67,10.09,10.09,0,0,0-5.89-1.77,9,9,0,0,0-6.66,2.77,9.67,9.67,0,0,0-2.73,7.07,10,10,0,0,0,4.88,8.73,9.15,9.15,0,0,0,4.81,1.33A9.34,9.34,0,0,0,474.29,66.91Z"/><path class="cls-1" d="M530.71,16.92V74.64h-8.29V70.42a17,17,0,0,1-12.28,5,15.23,15.23,0,0,1-7.88-2.07,14.37,14.37,0,0,1-5.52-5.92,19.17,19.17,0,0,1-2-8.95,17.94,17.94,0,0,1,2.1-8.88,14.12,14.12,0,0,1,5.85-5.74,17.93,17.93,0,0,1,8.47-2,16.11,16.11,0,0,1,6.44,1.3,12.77,12.77,0,0,1,4.89,3.51V16.92ZM518.87,66.65a9.46,9.46,0,0,0,3.55-5V55a8.88,8.88,0,0,0-3.51-4.74,10.39,10.39,0,0,0-6.11-1.85,9.31,9.31,0,0,0-4.81,1.3,9.82,9.82,0,0,0-4.88,8.62,9.93,9.93,0,0,0,1.33,5.1A10,10,0,0,0,508,67.09a9.15,9.15,0,0,0,4.81,1.33A10.28,10.28,0,0,0,518.87,66.65Z"/><path class="cls-1" d="M574.89,43.34v31.3H566.6V70.12A17.17,17.17,0,0,1,562,73.79a13.22,13.22,0,0,1-6.73,1.66,17,17,0,0,1-8.07-1.88A13.75,13.75,0,0,1,541.59,68a18.1,18.1,0,0,1-2.07-9,18.3,18.3,0,0,1,2.14-9,15.41,15.41,0,0,1,5.74-6,15.23,15.23,0,0,1,7.88-2.11q7.62,0,11.39,5.62l.6-4.21ZM563.31,66.91A9.27,9.27,0,0,0,566.6,62v-6.8a8.66,8.66,0,0,0-3.44-4.67,10.06,10.06,0,0,0-5.88-1.77,9,9,0,0,0-6.66,2.77,9.63,9.63,0,0,0-2.74,7.07,10,10,0,0,0,4.88,8.73,9.15,9.15,0,0,0,4.81,1.33A9.34,9.34,0,0,0,563.31,66.91Z"/></g></g></svg>