<svg xmlns="http://www.w3.org/2000/svg" viewBox="0 0 86.1 102.72"><defs><style>.cls-1{fill:#0071bc;}.cls-2{fill:#f7f7f7;stroke:#727272;stroke-width:0.1px;}.cls-2,.cls-3{stroke-miterlimit:10;}.cls-3{fill:#333;stroke:#fff;stroke-width:2px;}</style></defs><title>dnevnikRadaLogoIconSvg</title><g id="Layer_2" data-name="Layer 2"><g id="Layer_1-2" data-name="Layer 1"><rect class="cls-1" x="16" y="2.34" width="66" height="87" rx="8.38" ry="8.38" transform="translate(-4.43 5.25) rotate(-5.87)"/><path class="cls-2" d="M22.37,4.34H71.62A8.37,8.37,0,0,1,80,12.71V83a8.38,8.38,0,0,1-8.38,8.38H22.37A8.37,8.37,0,0,1,14,83V12.71A8.38,8.38,0,0,1,22.37,4.34Z" transform="translate(-4.65 5.06) rotate(-5.87)"/><path class="cls-2" d="M21.37,6.34H70.62A8.37,8.37,0,0,1,79,14.71V85a8.38,8.38,0,0,1-8.38,8.38H21.37A8.37,8.37,0,0,1,13,85V14.71a8.38,8.38,0,0,1,8.38-8.38Z" transform="translate(-4.86 4.97) rotate(-5.87)"/><path class="cls-2" d="M22.37,7.34H71.62A8.37,8.37,0,0,1,80,15.71V86a8.38,8.38,0,0,1-8.38,8.38H22.37A8.37,8.37,0,0,1,14,86V15.71a8.38,8.38,0,0,1,8.38-8.38Z" transform="matrix(0.99, 0.15, -0.15, 0.99, 8.27, -6.55)"/><path class="cls-2" d="M23.37,12.34H72.62A8.37,8.37,0,0,1,81,20.71V91a8.38,8.38,0,0,1-8.38,8.38H23.37A8.37,8.37,0,0,1,15,91V20.71a8.38,8.38,0,0,1,8.38-8.38Z" transform="translate(9.04 -6.65) rotate(8.74)"/><rect class="cls-1" x="9.5" y="6.84" width="66" height="87" rx="8.38" ry="8.38"/><rect class="cls-3" x="1" y="18.34" width="19" height="10" rx="5" ry="5"/><rect class="cls-3" x="1" y="45.34" width="19" height="10" rx="5" ry="5"/><rect class="cls-3" x="1" y="71.34" width="19" height="10" rx="5" ry="5"/></g></g></svg>